<svg width="959" height="518" viewBox="0 0 959 518" fill="none" xmlns="http://www.w3.org/2000/svg">
<path d="M29.8085 258.571H133.723V339.465H29.8085V258.571Z" fill="#3F3D56"/>
<path d="M11.897 258.571H106.952V339.465H11.897V258.571Z" fill="#FFD078"/>
<path d="M11.6378 339.789H107.34V258.248H11.6378V339.789ZM106.629 339.142H12.22V258.894H106.629V339.142Z" fill="#3F3D56"/>
<path d="M44.487 258.571V278.746L50.4359 275.448L55.027 278.552L60.5234 275.448L65.5674 278.746V258.571H44.487Z" fill="#3F3D56"/>
<path d="M65.5676 298.275H87.4885V299.568H65.5676V298.275Z" fill="#3F3D56"/>
<path d="M65.5676 306.81H87.4885V308.103H65.5676V306.81Z" fill="#3F3D56"/>
<path d="M65.5676 315.346H87.4885V316.639H65.5676V315.346Z" fill="#3F3D56"/>
<path d="M23.6656 296.529H59.1658V318.708H23.6656V296.529Z" fill="#FEFEFE"/>
<path d="M23.3422 318.967H59.489V296.141H23.3422V318.967ZM58.8424 318.32H23.9888V296.787H58.8424V318.32Z" fill="#3F3D56"/>
<path d="M130.879 354.273H103.138C101.845 354.273 100.552 354.855 99.7757 355.89L85.7436 373.543C83.4803 376.388 85.485 380.527 89.1062 380.527H130.879V354.273Z" fill="#F27B79"/>
<path d="M89.1066 380.85H131.203V353.95H103.138C101.716 353.95 100.358 354.597 99.5175 355.696L85.4854 373.349C84.3861 374.772 84.1276 376.647 84.9682 378.263C85.6795 379.815 87.296 380.85 89.1066 380.85ZM130.556 380.203H89.1066C87.5547 380.203 86.1967 379.363 85.4854 377.94C84.8388 376.517 84.9682 374.901 85.9382 373.737L99.97 356.084C100.746 355.114 101.845 354.597 103.074 354.597H130.491V380.203H130.556Z" fill="#3F3D56"/>
<path d="M413.524 243.31C413.524 245.703 411.584 247.578 409.256 247.578H395.289C392.896 247.578 391.021 245.638 391.021 243.31C391.021 240.918 392.961 239.043 395.289 239.043H409.256C411.584 238.978 413.524 240.918 413.524 243.31Z" fill="#3F3D56"/>
<path d="M360.823 248.354H378.023V272.732H360.823V248.354Z" fill="#3F3D56"/>
<path d="M405.117 429.154V286.635C405.117 274.543 395.289 264.714 383.197 264.714H319.826C307.734 264.714 297.905 274.543 297.905 286.635V417.902C297.905 429.024 288.917 438.012 277.795 438.012H260.013C248.89 438.012 239.902 429.024 239.902 417.902V360.546C239.902 360.546 240.355 343.216 251.024 340.694H141.484C141.484 340.694 95.9611 377.811 86.3909 437.624V444.22H405.117V429.154Z" fill="#FFD078"/>
<path d="M86.0675 444.544H405.441V286.635C405.441 274.349 395.483 264.391 383.196 264.391H319.826C307.54 264.391 297.582 274.349 297.582 286.635V417.902C297.582 428.83 288.723 437.689 277.795 437.689H260.012C249.084 437.689 240.225 428.83 240.225 417.902V360.546C240.225 360.352 240.743 343.474 251.154 341.017L253.869 340.371H141.42L141.355 340.435C141.226 340.5 129.78 349.941 117.365 366.495C105.855 381.82 91.1114 406.586 86.197 437.56L86.0675 444.544ZM404.794 443.897H86.7142V437.625C91.6286 406.845 106.307 382.143 117.753 366.947C129.586 351.169 140.514 341.923 141.613 341.017H249.084C240.096 344.962 239.643 359.834 239.579 360.546V417.902C239.579 429.154 248.761 438.336 260.012 438.336H277.795C289.046 438.336 298.229 429.154 298.229 417.902V286.635C298.229 274.737 307.928 265.038 319.826 265.038H383.196C395.095 265.038 404.794 274.737 404.794 286.635V443.897Z" fill="#3F3D56"/>
<path d="M361.922 264.649H369.682V407.944H361.922V264.649Z" fill="#3F3D56"/>
<path d="M0.000335693 337.202H147.951V344.574H0.000335693V337.202Z" fill="#3F3D56"/>
<path d="M166.25 444.608H269.065V465.753H166.25V444.608Z" fill="#3F3D56"/>
<path d="M129.198 507.396C103.342 507.396 82.3817 483.57 82.3817 454.178C82.3817 424.787 103.342 400.96 129.198 400.96C155.054 400.96 176.014 424.787 176.014 454.178C176.014 483.57 155.054 507.396 129.198 507.396Z" fill="#2F2E41"/>
<path d="M121.309 486.445C104.488 486.445 90.8525 470.928 90.8525 451.786C90.8525 432.644 104.488 417.126 121.309 417.126C138.13 417.126 151.766 432.644 151.766 451.786C151.766 470.928 138.13 486.445 121.309 486.445Z" fill="#FEFEFE"/>
<path d="M121.309 486.769C138.315 486.769 152.089 471.055 152.089 451.786C152.089 432.516 138.251 416.803 121.309 416.803C104.367 416.803 90.5291 432.516 90.5291 451.786C90.5291 471.055 104.302 486.769 121.309 486.769ZM121.309 417.449C137.927 417.449 151.442 432.839 151.442 451.786C151.442 470.732 137.927 486.122 121.309 486.122C104.69 486.122 91.1757 470.732 91.1757 451.786C91.1757 432.839 104.69 417.449 121.309 417.449Z" fill="#3F3D56"/>
<path d="M137.41 451.98C137.41 459.675 133.789 466.529 122.214 466.529C115.425 466.529 112.903 459.675 112.903 451.98C112.903 444.285 115.489 438.013 122.214 438.013C133.789 438.013 137.41 444.22 137.41 451.98Z" fill="#3F3D56"/>
<path d="M121.439 465.947C114.653 465.947 109.153 459.694 109.153 451.98C109.153 444.266 114.653 438.012 121.439 438.012C128.224 438.012 133.725 444.266 133.725 451.98C133.725 459.694 128.224 465.947 121.439 465.947Z" fill="#FEFEFE"/>
<path d="M121.438 466.206C128.357 466.206 134.048 459.804 134.048 451.915C134.048 444.026 128.422 437.624 121.438 437.624C114.455 437.624 108.829 444.026 108.829 451.915C108.829 459.804 114.519 466.206 121.438 466.206ZM121.438 438.336C128.034 438.336 133.401 444.479 133.401 451.98C133.401 459.481 128.034 465.624 121.438 465.624C114.843 465.624 109.476 459.481 109.476 451.98C109.476 444.479 114.843 438.336 121.438 438.336Z" fill="#3F3D56"/>
<path d="M392.961 507.396C367.105 507.396 346.144 483.57 346.144 454.178C346.144 424.787 367.105 400.96 392.961 400.96C418.817 400.96 439.777 424.787 439.777 454.178C439.777 483.57 418.817 507.396 392.961 507.396Z" fill="#2F2E41"/>
<path d="M385.071 486.445C368.251 486.445 354.615 470.928 354.615 451.786C354.615 432.644 368.251 417.126 385.071 417.126C401.892 417.126 415.528 432.644 415.528 451.786C415.528 470.928 401.892 486.445 385.071 486.445Z" fill="#FEFEFE"/>
<path d="M385.072 486.769C402.078 486.769 415.852 471.055 415.852 451.786C415.852 432.516 402.014 416.803 385.072 416.803C368.13 416.803 354.292 432.516 354.292 451.786C354.292 471.055 368.065 486.769 385.072 486.769ZM385.072 417.449C401.69 417.449 415.205 432.839 415.205 451.786C415.205 470.732 401.69 486.122 385.072 486.122C368.453 486.122 354.939 470.732 354.939 451.786C354.939 432.839 368.453 417.449 385.072 417.449Z" fill="#3F3D56"/>
<path d="M401.173 451.98C401.173 459.675 397.552 465.947 385.977 465.947C379.187 465.947 376.665 459.675 376.665 451.98C376.665 444.285 379.252 438.013 385.977 438.013C397.552 438.013 401.173 444.22 401.173 451.98Z" fill="#3F3D56"/>
<path d="M385.201 465.947C378.416 465.947 372.915 459.694 372.915 451.98C372.915 444.266 378.416 438.012 385.201 438.012C391.987 438.012 397.487 444.266 397.487 451.98C397.487 459.694 391.987 465.947 385.201 465.947Z" fill="#FEFEFE"/>
<path d="M385.201 466.206C392.12 466.206 397.811 459.804 397.811 451.915C397.811 444.026 392.185 437.624 385.201 437.624C378.217 437.624 372.592 444.026 372.592 451.915C372.592 459.804 378.282 466.206 385.201 466.206ZM385.201 438.336C391.797 438.336 397.164 444.479 397.164 451.98C397.164 459.481 391.797 465.624 385.201 465.624C378.605 465.624 373.238 459.481 373.238 451.98C373.238 444.479 378.67 438.336 385.201 438.336Z" fill="#3F3D56"/>
<path d="M43.1313 437.818H49.0805C49.8565 431.675 55.094 426.955 61.431 426.955H193.604V451.915H61.431C55.4173 451.915 50.3736 447.647 49.2096 441.957H43.1313V437.818Z" fill="#3F3D56"/>
<path d="M66.6037 444.22C66.6037 444.22 58.3916 378.393 135.277 360.481C163.017 354.014 226.711 349.811 212.42 444.22H66.6037Z" fill="#FFD078"/>
<path d="M66.2806 444.543H212.614L212.679 444.285C217.981 409.173 213.002 384.212 197.871 370.245C179.377 353.109 150.602 356.601 135.147 360.222C117.559 364.296 103.009 371.28 91.8227 380.915C82.8991 388.61 76.1097 398.05 71.7126 408.979C64.2116 427.537 66.1515 444.091 66.2162 444.285L66.2806 444.543ZM212.097 443.897H66.8628C66.6688 441.634 65.4402 426.244 72.3592 409.173C79.2135 392.231 95.7026 370.051 135.277 360.804C150.602 357.248 179.119 353.756 197.418 370.698C212.42 384.536 217.335 409.173 212.097 443.897Z" fill="#3F3D56"/>
<path d="M243.782 344.574H147.369C137.346 344.574 129.198 336.426 129.198 326.403C129.198 315.798 138.251 307.457 148.791 308.297L244.881 315.928C252.318 316.51 258.073 322.717 258.073 330.218C258.073 338.107 251.671 344.574 243.782 344.574Z" fill="#3F3D56"/>
<path d="M342.588 436.913H452.774C452.774 436.913 450.964 420.683 440.036 405.939C416.11 373.931 366.384 378.328 348.796 414.152C345.627 420.489 343.428 427.99 342.588 436.913Z" fill="#FFD078"/>
<path d="M342.2 437.236H453.098L453.033 436.849C453.033 436.655 451.093 420.359 440.23 405.745C428.914 390.549 410.808 382.531 391.797 384.277C372.915 386.023 356.749 397.145 348.407 414.022C345.11 420.812 342.976 428.442 342.2 436.849V437.236ZM452.386 436.59H342.976C343.752 428.442 345.821 420.941 349.054 414.346C357.266 397.662 373.238 386.67 391.926 384.988C410.678 383.242 428.59 391.196 439.777 406.198C449.606 419.454 451.998 434.133 452.386 436.59Z" fill="#3F3D56"/>
<path d="M65.8279 448.488H349.248V439.952H452.645V432.193H349.054C344.851 432.193 341.488 435.62 341.488 439.758V440.728H65.8279V448.488Z" fill="#3F3D56"/>
<path d="M264.668 490.325H283.615V482.566H267.32L230.849 454.76L226.194 460.903L264.668 490.325Z" fill="#3F3D56"/>
<path d="M360.241 256.437H383.843C385.266 256.437 386.688 256.243 387.982 255.92C395.483 254.045 401.044 247.255 401.044 239.172C401.044 234.387 399.104 230.119 396 227.015C393.802 224.817 391.085 223.265 387.982 222.489C386.624 222.166 385.266 221.972 383.778 221.972H380.351C368.518 221.972 357.202 227.856 351.059 238.008C350.736 238.525 350.412 239.107 350.089 239.689C346.144 247.32 351.641 256.437 360.241 256.437Z" fill="#FFD078"/>
<path d="M360.241 256.761H383.843C385.266 256.761 386.688 256.567 388.111 256.243C395.935 254.303 401.432 247.32 401.432 239.172C401.432 234.452 399.621 230.054 396.259 226.757C393.995 224.493 391.15 222.877 388.111 222.101C386.688 221.778 385.266 221.584 383.843 221.584H380.416C368.259 221.584 356.943 227.791 350.865 237.814C350.541 238.396 350.218 238.913 349.895 239.495C347.955 243.117 348.019 247.449 350.153 251.005C352.352 254.627 356.102 256.761 360.241 256.761ZM383.843 222.295C385.201 222.295 386.624 222.489 387.917 222.812C390.892 223.523 393.607 225.075 395.806 227.274C398.974 230.442 400.785 234.71 400.785 239.237C400.785 247.061 395.482 253.786 387.981 255.661C386.623 255.985 385.266 256.179 383.908 256.179H360.306C356.361 256.179 352.804 254.174 350.8 250.747C348.795 247.384 348.666 243.31 350.541 239.883C350.865 239.301 351.188 238.784 351.511 238.202C357.46 228.373 368.583 222.295 380.481 222.295H383.843Z" fill="#3F3D56"/>
<path d="M376.148 239.237C376.148 246.091 379.123 252.234 383.843 256.502H383.908C393.413 256.502 401.173 248.807 401.173 239.237C401.173 234.452 399.233 230.184 396.129 227.08C393.025 223.976 388.693 222.036 383.973 222.036H383.908C379.058 226.239 376.148 232.382 376.148 239.237Z" fill="#3F3D56"/>
<path d="M380.868 239.237C380.868 245.833 383.583 251.717 387.981 255.985C395.482 254.11 401.043 247.32 401.043 239.237C401.043 234.452 399.103 230.184 395.999 227.08C393.801 224.882 391.084 223.33 387.981 222.554C383.583 226.692 380.868 232.641 380.868 239.237Z" fill="#FEFEFE"/>
<path d="M387.917 256.308L388.111 256.243C395.935 254.303 401.432 247.32 401.432 239.172C401.432 234.452 399.621 230.055 396.259 226.757C393.995 224.493 391.15 222.877 388.111 222.101L387.917 222.036L387.788 222.166C383.132 226.627 380.545 232.641 380.545 239.107C380.545 245.574 383.132 251.587 387.788 256.049L387.917 256.308ZM388.111 222.877C391.021 223.653 393.672 225.14 395.806 227.274C398.974 230.442 400.785 234.71 400.785 239.237C400.785 246.996 395.612 253.657 388.111 255.597C383.649 251.264 381.192 245.444 381.192 239.237C381.192 232.964 383.649 227.209 388.111 222.877Z" fill="#3F3D56"/>
<path d="M337.027 240.724H349.765V245.962H337.027V240.724Z" fill="#FFD078"/>
<path d="M336.768 246.35H350.153V240.465H336.768V246.35ZM349.442 245.703H337.35V241.112H349.442V245.703Z" fill="#3F3D56"/>
<path d="M354.551 238.978H349.442C347.05 238.978 345.174 240.918 345.174 243.246C345.174 245.638 347.114 247.514 349.442 247.514H354.551C356.943 247.514 358.818 245.574 358.818 243.246C358.818 240.918 356.943 238.978 354.551 238.978Z" fill="#3F3D56"/>
<path d="M339.484 243.31C339.484 245.703 337.544 247.578 335.216 247.578H321.249C318.856 247.578 316.981 245.638 316.981 243.31C316.981 240.918 318.921 239.043 321.249 239.043H335.216C337.544 238.978 339.484 240.918 339.484 243.31Z" fill="#3F3D56"/>
<path d="M108.7 427.666H171.812V431.287H108.7V427.666Z" fill="white"/>
<path d="M108.376 431.611H172.135V427.343H108.376V431.611ZM171.488 430.964H109.023V427.99H171.488V430.964Z" fill="black"/>
<path d="M108.7 418.096H171.812V421.717H108.7V418.096Z" fill="white"/>
<path d="M108.376 422.041H172.135V417.773H108.376V422.041ZM171.488 421.394H109.023V418.419H171.488V421.394Z" fill="black"/>
<path d="M108.7 408.591H171.812V412.212H108.7V408.591Z" fill="white"/>
<path d="M108.376 412.535H172.135V408.267H108.376V412.535ZM171.488 411.888H109.023V408.914H171.488V411.888Z" fill="black"/>
<path d="M204.79 490.261H337.35V491.554H204.79V490.261Z" fill="#3F3D56"/>
<path d="M463 517H878V518H463V517Z" fill="#3F3D56"/>
<path d="M557.546 516.867H608.109C608.109 516.867 604.918 505.977 582.515 497.03L582.585 494.533L582.793 481.008H558.864L558.448 492.938L557.546 516.867Z" fill="#3F3D56"/>
<path d="M557.13 517.213H608.525L608.387 516.797C608.248 516.381 604.919 505.7 582.793 496.822L583.001 480.73H558.379L557.13 517.213ZM607.624 516.52H557.893L559.142 481.355H582.377L582.169 497.238L582.377 497.307C601.798 505.145 606.722 514.439 607.624 516.52Z" fill="#3F3D56"/>
<path d="M491.655 516.866H542.218C542.218 516.866 539.027 505.977 516.624 497.03L516.833 495.365L518.775 481.008H494.846L493.736 493.493L491.655 516.866Z" fill="#3F3D56"/>
<path d="M491.239 517.213H542.704L542.565 516.797C542.426 516.381 539.097 505.7 516.971 496.822L519.122 480.661H494.499L491.239 517.213ZM541.733 516.52H492.002L495.123 481.355H518.359L516.208 497.238L516.486 497.307C535.976 505.145 540.831 514.439 541.733 516.52Z" fill="#3F3D56"/>
<path d="M790.316 516.866H840.878L837.619 491.55L836.301 481.008H812.372L815.216 493.978L815.909 499.804C792.396 507.018 790.316 516.866 790.316 516.866Z" fill="#3F3D56"/>
<path d="M789.9 517.213H841.295L836.647 480.661H811.956L814.938 494.047L815.562 499.527C792.396 506.671 790.038 516.381 789.969 516.797L789.9 517.213ZM840.532 516.52H790.801C791.564 514.578 795.795 506.324 816.048 500.151L816.325 500.082L815.632 493.978L812.857 481.424H836.023L840.532 516.52Z" fill="#3F3D56"/>
<path d="M732.054 516.866H782.617L781.368 491.967L780.813 481.008H756.884L757.509 494.325L757.647 499.041C735.244 508.058 732.054 516.866 732.054 516.866Z" fill="#3F3D56"/>
<path d="M731.568 517.213H783.033L781.16 480.661H756.537L757.231 494.394L757.37 498.903C735.244 507.781 731.915 516.45 731.776 516.797L731.568 517.213ZM782.27 516.52H732.609C733.649 514.578 738.782 507.018 757.786 499.388L757.994 499.319L757.856 494.325L757.231 481.355H780.466L782.27 516.52Z" fill="#3F3D56"/>
<path d="M597.289 19.9779L562.124 12.071L558.309 25.4573C557.338 24.7637 556.367 24.3476 555.465 24.3476C551.304 24.3476 550.472 29.3414 550.472 29.3414C549.293 34.7514 552.83 38.0806 554.425 40.4388L542.357 79.0719L572.25 83.7189L574.817 59.0271C600.549 71.9972 597.289 19.9779 597.289 19.9779Z" fill="#FFAC71"/>
<path d="M572.597 83.9963L575.163 59.4432C580.227 61.8708 584.596 62.0095 588.064 59.7207C599.578 52.0912 597.775 21.2264 597.705 19.9085V19.6311L561.916 11.5854L558.171 24.7637C557.269 24.1394 556.367 23.862 555.535 23.862C551.165 23.862 550.194 29.0639 550.194 29.1333C549.154 33.8497 551.581 36.9709 553.315 39.2597C553.593 39.6065 553.87 39.9533 554.078 40.3001L541.941 79.1412L572.597 83.9963ZM574.539 58.4028L571.973 83.2334L542.842 78.6557L554.841 40.3001L554.772 40.1614C554.495 39.8146 554.217 39.3984 553.87 38.9823C552.206 36.7628 549.917 33.7803 550.888 29.4107C550.957 29.2026 551.72 24.6943 555.535 24.6943C556.367 24.6943 557.269 25.0411 558.171 25.7347L558.587 26.0121L562.471 12.4871L597.081 20.2553C597.22 23.3071 598.399 52.1605 587.718 59.1658C584.388 61.3853 580.088 61.1772 575.094 58.6803L574.539 58.4028Z" fill="#3F3D56"/>
<path d="M607.832 4.85768C606.237 4.51089 602.214 4.85768 599.786 6.86909C599.925 6.59165 600.064 6.31423 600.202 6.03679C603.809 -4.78323 588.62 3.26242 580.574 4.85768C578.909 5.20448 575.233 5.69 575.233 5.69C551.166 0.21063 553.593 24.7638 553.593 24.7638C559.905 23.8621 561.778 32.4626 561.778 32.4626C568.228 29.4108 570.239 25.0412 570.447 23.1685C576.69 26.0122 592.712 31.4222 605.959 21.8507C615.045 15.2615 611.855 5.62063 607.832 4.85768Z" fill="#2F2E41"/>
<path d="M747.521 107.717C747.521 107.717 757.301 89.4758 758.133 80.3897L754.041 60.4143C754.041 60.4143 753.555 41.2712 778.732 45.9183C778.732 45.9183 778.594 36.9016 784.559 34.7515C784.559 34.7515 781.646 39.8147 782.686 44.8085C782.686 44.8085 787.541 33.7111 796.697 39.5372C796.697 39.5372 803.771 43.4213 801.899 50.496C801.899 50.496 802.037 58.5416 791.009 58.6804C791.009 58.6804 791.148 68.7374 815.493 82.4011C815.493 82.4011 835.746 92.1114 834.081 113.266C832.417 134.42 813.551 147.737 813.551 147.737L744.192 147.807L747.521 107.717Z" fill="#2F2E41"/>
<path d="M786.015 115.485L783.033 80.5979C783.033 80.5979 788.235 77.5461 786.917 71.5812C786.917 71.5812 785.669 66.7954 780.883 70.4714L780.744 62.0096C780.744 62.0096 763.959 68.3213 754.18 58.8191C754.18 58.8191 747.105 91.834 762.017 91.7647L758.827 119.508L786.015 115.485Z" fill="#FFAC71"/>
<path d="M758.48 119.924L786.431 115.832L783.449 80.8059C784.42 80.1817 788.512 77.0605 787.333 71.5118C787.333 71.4424 786.778 69.431 785.114 68.8761C784.004 68.5294 782.755 68.8068 781.299 69.7778L781.16 61.5241L780.675 61.6628C780.536 61.7322 764.028 67.7664 754.457 58.5416L754.041 58.1255L753.902 58.7497C753.694 59.6514 749.186 81.1527 755.705 89.129C757.231 91.0017 759.243 91.9727 761.67 92.0421L758.48 119.924ZM785.668 115.208L759.312 119.092L762.502 91.4179H762.086C759.659 91.4179 757.717 90.5162 756.26 88.7129C750.573 81.7076 753.833 63.1193 754.526 59.5127C763.473 67.5583 777.761 63.3968 780.536 62.4951L780.675 71.165L781.229 70.7489C782.686 69.6391 783.935 69.2229 784.906 69.5697C786.223 69.9859 786.709 71.7199 786.709 71.7199C787.957 77.4073 783.171 80.251 782.963 80.3898L782.755 80.5285V80.7366L785.668 115.208Z" fill="#2F2E41"/>
<path d="M558.379 493.007L582.516 494.533L582.724 481.008H558.795L558.379 493.007Z" fill="#3F3D56"/>
<path d="M493.736 493.492L516.833 495.365L518.775 481.008H494.846L493.736 493.492Z" fill="#3F3D56"/>
<path d="M528.208 201.907L529.179 207.178L535.074 239.708L550.333 323.355L551.235 350.96L555.882 489.262H596.249L600.758 324.187L594.376 232.147L592.226 201.907H528.208Z" fill="#CDCBCC"/>
<path d="M555.535 489.608H596.596V489.262L601.104 324.187L592.573 201.56H527.792L549.986 323.424L555.535 489.608ZM595.902 488.915H556.159L550.611 323.355L528.555 202.254H591.81L600.411 324.256L595.902 488.915Z" fill="#3F3D56"/>
<path d="M812.372 481.008L815.285 493.978L837.688 491.55L836.301 481.008H812.372Z" fill="#3F3D56"/>
<path d="M756.884 481.008L757.509 494.394L781.368 491.967L780.813 481.008H756.884Z" fill="#3F3D56"/>
<path d="M487.147 489.955H527.931L551.235 350.959L556.437 319.817L565.315 239.499L568.853 207.178H502.615L502.892 232.702L503.863 316.904L487.147 489.955Z" fill="#CDCBCC"/>
<path d="M486.8 490.302H528.277L528.346 490.025L556.853 319.887L569.338 206.831H502.337L503.585 316.904L486.8 490.302ZM527.653 489.608H487.563L504.21 316.974L502.961 207.525H568.506L556.09 319.748L527.653 489.608Z" fill="#3F3D56"/>
<path d="M737.603 303.032L748.284 489.262H785.183L783.934 371.212L783.172 303.865L788.512 241.442L790.593 216.542L759.659 216.056L742.181 215.709L740.724 243.661L737.603 303.032Z" fill="#3F3D56"/>
<path d="M748.007 489.608H785.53V489.262L783.519 303.865L791.009 216.195L741.903 215.363L737.256 303.032L748.007 489.608ZM784.836 488.915H748.631L737.95 303.032L742.527 216.056L790.246 216.888L782.825 303.865L784.836 488.915Z" fill="#3F3D56"/>
<path d="M502.614 207.178L502.891 232.702C514.405 236.517 525.225 238.737 535.074 239.708C546.38 240.887 556.575 240.54 565.315 239.43C578.424 237.835 588.411 234.506 594.307 232.078L592.226 201.838H528.208L529.179 207.109H502.614V207.178Z" fill="#3F3D56"/>
<path d="M759.243 213.143L759.659 216.056L763.612 244.84L774.086 320.719L783.934 371.212L806.684 488.152L840.462 488.845L824.926 317.043L820.626 227.292L819.863 211.478L759.243 213.143Z" fill="#3F3D56"/>
<path d="M840.878 489.192V488.776L825.342 316.974L820.21 211.062L758.896 212.727L773.739 320.788L806.407 488.499L840.878 489.192ZM819.516 211.825L824.579 317.043L840.115 488.429L806.962 487.736L774.433 320.58L759.659 213.42L819.516 211.825Z" fill="#3F3D56"/>
<path d="M745.093 112.711L718.182 147.737L680.589 155.089V182.139L724.632 177.978C727.684 177.7 730.528 176.591 733.025 174.857L750.642 162.372L745.093 112.711Z" fill="#CDCBCC"/>
<path d="M680.243 182.556L724.702 178.325C727.754 178.047 730.736 176.938 733.302 175.134L751.128 162.511L745.44 111.809L718.043 147.391L680.312 154.812V182.556H680.243ZM750.365 162.233L732.886 174.649C730.459 176.383 727.615 177.423 724.632 177.7L680.936 181.862V155.436L718.39 148.084L718.459 148.015L744.885 113.682L750.365 162.233Z" fill="#3F3D56"/>
<path d="M573.985 74.8409C573.985 74.8409 568.783 87.1175 545.409 62.9111L505.319 77.6846C499.632 80.1815 495.609 85.3835 494.569 91.4871L488.257 127.138H510.175L500.048 222.437C500.048 222.437 529.595 230.275 552.206 230.76C589.521 231.592 597.775 224.934 597.775 224.934L596.11 191.087L595.833 114.098C596.249 103.139 591.672 94.8857 585.152 86.0077L573.985 74.8409Z" fill="#FFD078"/>
<path d="M558.448 231.176C590.146 231.176 597.636 225.419 597.914 225.211L598.052 225.073L596.388 191.017L596.11 114.029C596.526 103.278 592.088 94.8857 585.36 85.7303L573.846 74.2167L573.638 74.7022C573.569 74.7716 572.598 76.9217 569.684 77.4766C565.87 78.1702 558.657 76.1587 545.617 62.6337L545.478 62.495L545.27 62.5644L505.18 77.3378C499.354 79.9041 495.262 85.1754 494.222 91.4177L487.841 127.484H509.758L499.632 222.714L499.909 222.784C500.187 222.853 529.734 230.621 552.137 231.176C554.287 231.176 556.437 231.176 558.448 231.176ZM597.359 224.726C596.11 225.558 586.331 231.176 552.137 230.413C531.052 229.928 503.516 222.923 500.395 222.16L510.521 126.722H488.673L494.915 91.4871C495.956 85.4528 499.84 80.3896 505.458 77.9621L545.339 63.3273C558.518 76.9217 566.009 78.9331 569.893 78.1702C572.39 77.6846 573.638 76.1587 574.123 75.3958L584.943 86.1464C591.741 95.4406 595.902 103.417 595.486 114.029L595.764 191.017L597.359 224.726Z" fill="#3F3D56"/>
<path d="M597.914 110.63H708.541V196.774H597.914V110.63Z" fill="#3F3D56"/>
<path d="M578.84 110.63H680.035V196.774H578.84V110.63Z" fill="#FEFEFE"/>
<path d="M578.493 197.121H680.381V110.284H578.493V197.121ZM679.688 196.428H579.187V110.977H679.688V196.428Z" fill="#3F3D56"/>
<path d="M613.519 110.63V132.132L619.831 128.664L624.686 131.924L630.512 128.664L635.922 132.132V110.63H613.519Z" fill="#3F3D56"/>
<path d="M635.853 152.939H659.227V154.327H635.853V152.939Z" fill="#3F3D56"/>
<path d="M635.853 162.025H659.227V163.413H635.853V162.025Z" fill="#3F3D56"/>
<path d="M635.853 171.112H659.227V172.499H635.853V171.112Z" fill="#3F3D56"/>
<path d="M591.324 151.067H629.125V174.649H591.324V151.067Z" fill="#FEFEFE"/>
<path d="M590.978 174.996H629.472V150.72H590.978V174.996ZM628.778 174.302H591.671V151.414H628.778V174.302Z" fill="#3F3D56"/>
<path d="M740.724 243.661C746.55 244.493 754.526 245.187 763.612 244.84C771.242 244.563 779.703 243.592 788.443 241.441C799.055 238.806 810.083 234.367 820.556 227.292L819.793 211.478L759.243 213.143L759.659 216.056L742.18 215.779L740.724 243.661Z" fill="#3F3D56"/>
<path d="M680.243 199.618C680.867 200.658 681.699 201.491 682.67 202.184C683.641 202.878 684.751 203.363 685.93 203.571L691.41 204.82C694.947 205.583 698.554 205.999 702.16 205.999H706.946C708.333 205.999 709.72 205.652 710.9 204.959L716.032 202.115L721.442 201.491L741.556 199.063V183.596L724.633 186.232L716.795 187.48L699.802 182.764C699.802 182.764 696.82 188.937 706.114 192.058L697.097 196.497H681.977C680.381 196.358 679.341 198.231 680.243 199.618Z" fill="#E78D4C"/>
<path d="M702.23 206.276H707.015C708.472 206.276 709.928 205.93 711.177 205.167L716.24 202.392L741.972 199.271V183.111L716.864 187.064L699.663 182.278L699.525 182.556C699.455 182.625 698.415 184.844 699.525 187.341C700.357 189.353 702.299 190.948 705.281 192.058L697.097 196.081H682.046C681.144 196.081 680.312 196.566 679.896 197.329C679.48 198.092 679.48 199.063 679.965 199.826C680.659 200.866 681.491 201.768 682.462 202.462C683.503 203.155 684.612 203.641 685.791 203.918L691.271 205.167C694.947 205.93 698.554 206.276 702.23 206.276ZM741.279 198.716L715.963 201.768L710.83 204.612C709.651 205.236 708.333 205.583 707.015 205.583H702.23C698.623 205.583 695.016 205.167 691.548 204.404L686.069 203.155C684.959 202.878 683.919 202.462 682.948 201.768C682.046 201.144 681.214 200.312 680.589 199.341C680.243 198.786 680.243 198.092 680.52 197.537C680.798 196.982 681.422 196.636 682.046 196.636H697.236L707.085 191.78L706.252 191.503C703.062 190.463 700.981 188.867 700.149 186.925C699.386 185.191 699.802 183.596 700.079 182.972L716.864 187.619L741.279 183.804V198.716Z" fill="#3F3D56"/>
<path d="M612.271 57.64H680.867V111.046H612.271V57.64Z" fill="#3F3D56"/>
<path d="M600.48 57.6399H663.181V111.046H600.48V57.6399Z" fill="#FFD078"/>
<path d="M600.133 111.393H663.527V57.2932H600.133V111.393ZM662.834 110.7H600.826V57.9867H662.834V110.7Z" fill="#3F3D56"/>
<path d="M621.912 57.64V70.9569L625.865 68.8068L628.917 70.8182L632.524 68.8068L635.853 70.9569V57.64H621.912Z" fill="#3F3D56"/>
<path d="M635.784 83.5804H650.28V84.9676H635.784V83.5804Z" fill="#3F3D56"/>
<path d="M635.784 89.1984H650.28V90.5855H635.784V89.1984Z" fill="#3F3D56"/>
<path d="M635.784 94.8858H650.28V96.273H635.784V94.8858Z" fill="#3F3D56"/>
<path d="M608.179 82.6786H631.622V97.3133H608.179V82.6786Z" fill="#FEFEFE"/>
<path d="M607.832 97.6602H631.969V82.3318H607.832V97.6602ZM631.275 96.9666H608.525V83.0254H631.275V96.9666Z" fill="#3F3D56"/>
<path d="M721.511 201.421L741.625 198.994V183.527L724.702 186.162L721.511 201.421Z" fill="#3F3D56"/>
<path d="M727.615 184.637L740.308 182.209L742.389 119.924C742.527 115.971 744.331 112.226 747.383 109.659L760.353 98.8393C760.353 98.8393 762.849 114.723 787.056 98.8393L809.459 106.885C815.771 109.174 820.556 114.514 822.082 121.034L836.232 189.769C837.549 196.15 832.833 202.184 826.313 202.392L819.585 202.6L822.845 224.518C822.845 224.518 799.749 234.436 776.028 235.893C748.7 237.627 739.753 231.107 740.1 230.205L741.487 206.901L727.615 207.456V184.637Z" fill="#CDCBCC"/>
<path d="M767.15 236.656C769.855 236.656 772.837 236.586 776.028 236.378C799.54 234.922 822.706 225.073 822.984 224.934L823.261 224.795L823.192 224.518L820.001 203.017L826.382 202.808C829.573 202.67 832.555 201.213 834.567 198.647C836.578 196.15 837.341 192.89 836.647 189.769L822.498 121.034C820.903 114.306 816.117 108.966 809.597 106.607L787.056 98.4924L786.917 98.5618C777.554 104.735 770.132 106.885 765.416 104.804C761.462 103.07 760.769 98.8392 760.769 98.8392L760.699 98.215L747.313 109.451C744.192 112.087 742.319 115.902 742.18 119.994L740.1 182.001L727.407 184.428V208.01L741.279 207.456L739.891 230.344C739.822 230.552 739.892 230.691 740.03 230.899C740.863 232.217 748.145 236.656 767.15 236.656ZM822.429 224.379C819.862 225.42 798.084 234.228 775.958 235.615C749.81 237.28 740.863 231.315 740.446 230.344V230.275L741.834 206.554L727.892 207.109V184.844L740.585 182.417L742.666 119.855C742.805 115.971 744.608 112.364 747.521 109.867L760.006 99.3941C760.352 100.712 761.532 103.833 764.93 105.29C769.924 107.509 777.276 105.428 786.987 99.1166L809.251 107.093C815.493 109.312 820.14 114.514 821.666 121.034L835.815 189.769C836.439 192.682 835.676 195.734 833.873 198.092C832 200.45 829.226 201.837 826.243 201.976L819.1 202.184L822.429 224.379Z" fill="#3F3D56"/>
<path d="M819.527 202.209L819.567 202.901L740.901 207.417L740.861 206.725L819.527 202.209Z" fill="#3F3D56"/>
<path d="M740.03 182.556L799.887 170.21L794.477 140.385L793.783 140.524L799.124 169.655L739.891 181.931L740.03 182.556Z" fill="#3F3D56"/>
<path d="M484.997 170.973C484.372 177.978 488.742 184.498 495.47 186.579L566.355 208.635L573.083 210.993C575.649 211.895 578.423 212.172 581.128 211.825L594.723 210.161C595.555 210.022 596.457 209.814 597.22 209.536L613.103 203.71C615.114 202.947 616.918 201.56 618.097 199.757L618.305 199.41C619.137 198.162 618.236 196.497 616.71 196.497H591.185C598.607 191.781 598.052 187.619 598.052 187.619L582.377 189.769L570.933 191.156L516.902 164.8L523.144 133.658L524.393 127.346H488.465L488.118 131.022L484.997 170.973Z" fill="#FFAC71"/>
<path d="M578.978 212.311C579.741 212.311 580.504 212.241 581.198 212.172L594.792 210.507C595.694 210.369 596.595 210.161 597.358 209.883L613.242 204.057C615.392 203.294 617.126 201.907 618.374 199.965L618.582 199.618C619.068 198.924 619.068 198.023 618.652 197.329C618.235 196.566 617.542 196.15 616.64 196.15H592.295C598.815 191.642 598.399 187.758 598.33 187.55L598.26 187.203L582.238 189.353L570.863 190.671L517.179 164.522L524.74 126.86H488.118L484.372 170.903C483.748 178.117 488.187 184.706 495.123 186.856L566.008 208.912L572.736 211.27C574.886 211.964 576.967 212.311 578.978 212.311ZM616.848 196.844C617.403 196.844 617.958 197.121 618.235 197.676C618.513 198.162 618.513 198.786 618.166 199.271L617.958 199.618C616.779 201.352 615.114 202.67 613.172 203.433L597.289 209.259C596.526 209.536 595.694 209.744 594.862 209.883L581.267 211.548C578.632 211.895 575.857 211.617 573.36 210.715L566.632 208.357L495.747 186.301C489.158 184.22 484.927 177.978 485.482 171.042L489.158 127.623H524.323L516.833 164.938L517.041 165.077L571.141 191.434L582.724 190.046L597.983 187.966C597.913 189.006 597.15 192.405 591.255 196.15L590.284 196.774H616.848V196.844Z" fill="#3F3D56"/>
<path d="M527.708 112.312L528.382 112.474L524.545 128.459L523.871 128.297L527.708 112.312Z" fill="#3F3D56"/>
<path d="M488.396 130.883L523.283 133.588L524.601 127.207H488.673L488.396 130.883Z" fill="#3F3D56"/>
<path d="M675.275 313.122C673.452 313.121 671.647 313.48 669.963 314.177C668.278 314.874 666.747 315.896 665.458 317.185C664.168 318.474 663.145 320.004 662.447 321.689C661.749 323.373 661.389 325.179 661.389 327.002C661.389 323.32 659.926 319.788 657.323 317.184C654.72 314.58 651.189 313.117 647.507 313.117C651.189 313.117 654.72 311.654 657.323 309.05C659.926 306.446 661.389 302.914 661.389 299.232C661.389 302.914 662.851 306.446 665.455 309.05C668.058 311.654 671.589 313.117 675.27 313.117L675.275 313.122Z" fill="#555185"/>
<path d="M712.05 400.869C715.177 400.869 717.713 398.332 717.713 395.204C717.713 392.075 715.177 389.539 712.05 389.539C708.922 389.539 706.386 392.075 706.386 395.204C706.386 398.332 708.922 400.869 712.05 400.869Z" fill="#FFD078"/>
<path d="M479.676 336.329C482.804 336.329 485.339 333.793 485.339 330.665C485.339 327.536 482.804 325 479.676 325C476.548 325 474.013 327.536 474.013 330.665C474.013 333.793 476.548 336.329 479.676 336.329Z" fill="#FFD078"/>
<path d="M673.168 243.955C677.164 243.955 680.404 240.715 680.404 236.718C680.404 232.72 677.164 229.48 673.168 229.48C669.172 229.48 665.932 232.72 665.932 236.718C665.932 240.715 669.172 243.955 673.168 243.955Z" fill="#FFD078"/>
<path d="M276.765 394.846C273.747 394.846 270.851 396.045 268.717 398.18C266.582 400.315 265.383 403.211 265.383 406.231C265.383 403.211 264.184 400.315 262.049 398.18C259.914 396.045 257.019 394.846 254 394.846C257.019 394.846 259.914 393.646 262.049 391.511C264.184 389.376 265.383 386.48 265.383 383.46C265.383 386.48 266.582 389.376 268.717 391.511C270.851 393.646 273.747 394.846 276.765 394.846Z" fill="#555185"/>
<path d="M343.322 387.372C345.408 387.372 347.099 385.68 347.099 383.594C347.099 381.507 345.408 379.816 343.322 379.816C341.236 379.816 339.545 381.507 339.545 383.594C339.545 385.68 341.236 387.372 343.322 387.372Z" fill="#FFD078"/>
<path d="M450.226 197.308C448.403 197.307 446.597 197.666 444.913 198.363C443.229 199.06 441.698 200.082 440.408 201.371C439.119 202.66 438.096 204.19 437.398 205.875C436.7 207.559 436.34 209.365 436.339 211.188C436.339 207.506 434.877 203.974 432.273 201.37C429.67 198.766 426.139 197.303 422.458 197.303C426.139 197.303 429.67 195.84 432.273 193.236C434.877 190.632 436.339 187.1 436.339 183.418C436.339 187.1 437.802 190.632 440.405 193.236C443.008 195.84 446.539 197.303 450.221 197.303L450.226 197.308Z" fill="#555185"/>
<path d="M431.006 109.301L431.014 109.301L431.022 109.301C432.851 109.243 434.672 109.554 436.379 110.214C438.085 110.874 439.642 111.871 440.956 113.144C442.27 114.418 443.315 115.943 444.028 117.628C444.742 119.314 445.11 121.125 445.11 122.955C445.11 124.786 444.742 126.597 444.028 128.283C443.315 129.968 442.27 131.493 440.956 132.766C439.642 134.04 438.085 135.037 436.379 135.697C434.672 136.357 432.851 136.668 431.022 136.61L431.014 136.61H431.006L373.312 136.61L373.309 136.61C371.6 136.62 369.913 136.221 368.388 135.448C366.864 134.674 365.546 133.547 364.545 132.16C363.544 130.774 362.889 129.169 362.633 127.478C362.378 125.787 362.53 124.06 363.077 122.44C363.624 120.82 364.55 119.354 365.778 118.164C367.006 116.974 368.5 116.095 370.136 115.599C371.772 115.104 373.503 115.007 375.184 115.316C376.866 115.624 378.449 116.331 379.802 117.375L380.781 118.131L380.603 116.907C379.729 110.909 381.25 104.807 384.837 99.921C388.423 95.0348 393.788 91.7561 399.771 90.7932C405.754 89.8303 411.876 91.2606 416.814 94.775C421.752 98.2895 425.109 103.606 426.161 109.576L426.261 110.142L426.807 109.965C428.164 109.525 429.58 109.301 431.006 109.301Z" fill="white" stroke="black"/>
<path d="M443.79 516.556C445.876 516.556 447.567 514.864 447.567 512.778C447.567 510.691 445.876 509 443.79 509C441.704 509 440.013 510.691 440.013 512.778C440.013 514.864 441.704 516.556 443.79 516.556Z" fill="#FFD078"/>
<path d="M944.944 323.722L945.045 324.281L945.587 324.109C946.526 323.81 947.506 323.66 948.491 323.664C950.936 323.757 953.25 324.793 954.949 326.555C956.649 328.319 957.6 330.674 957.601 333.124C957.602 335.575 956.654 337.93 954.955 339.696C953.259 341.46 950.946 342.498 948.501 342.593H907.891C906.717 342.593 905.561 342.313 904.516 341.778C903.472 341.242 902.571 340.465 901.887 339.511C901.202 338.558 900.755 337.455 900.581 336.294C900.408 335.133 900.513 333.947 900.888 332.835C901.264 331.723 901.899 330.716 902.74 329.898C903.582 329.08 904.606 328.474 905.728 328.131C906.85 327.787 908.038 327.716 909.193 327.923C910.348 328.13 911.437 328.609 912.371 329.32L913.339 330.058L913.169 328.852C912.579 324.679 913.65 320.44 916.15 317.047C918.651 313.654 922.382 311.378 926.542 310.706C930.702 310.034 934.96 311.021 938.4 313.455C941.841 315.888 944.19 319.574 944.944 323.722Z" fill="white" stroke="black"/>
</svg>
